<?xml version="1.0" encoding="UTF-8"?><svg xmlns="http://www.w3.org/2000/svg" xmlns:xlink="http://www.w3.org/1999/xlink" fill-opacity="1" color-rendering="auto" color-interpolation="auto" text-rendering="auto" stroke="black" stroke-linecap="square" width="468" stroke-miterlimit="10" shape-rendering="auto" stroke-opacity="1" fill="black" stroke-dasharray="none" font-weight="normal" stroke-width="1" height="183" font-family="'Dialog'" font-style="normal" stroke-linejoin="miter" font-size="12px" stroke-dashoffset="0" image-rendering="auto">
  <!--Generated by ySVG 2.5-->
  <defs id="genericDefs"/>
  <g>
    <defs id="defs1">
      <clipPath clipPathUnits="userSpaceOnUse" id="clipPath1">
        <path d="M0 0 L468 0 L468 183 L0 183 L0 0 Z"/>
      </clipPath>
      <clipPath clipPathUnits="userSpaceOnUse" id="clipPath2">
        <path d="M92 421 L560 421 L560 604 L92 604 L92 421 Z"/>
      </clipPath>
    </defs>
    <g fill="rgb(240,240,255)" text-rendering="geometricPrecision" shape-rendering="geometricPrecision" transform="matrix(1,0,0,1,-92,-421)" stroke="rgb(240,240,255)">
      <rect x="107.96" width="141.68" height="101.016" y="472.1219" clip-path="url(#clipPath2)" stroke="none"/>
    </g>
    <g text-rendering="geometricPrecision" stroke-miterlimit="1.45" shape-rendering="geometricPrecision" transform="matrix(1,0,0,1,-92,-421)" stroke-linecap="butt">
      <rect fill="none" x="107.96" width="141.68" height="101.016" y="472.1219" clip-path="url(#clipPath2)"/>
      <text x="113.96" xml:space="preserve" y="489.2606" clip-path="url(#clipPath2)" font-family="sans-serif" stroke="none">Worker</text>
    </g>
    <g fill="rgb(240,240,255)" text-rendering="geometricPrecision" shape-rendering="geometricPrecision" transform="matrix(1,0,0,1,-92,-421)" stroke="rgb(240,240,255)">
      <rect x="126.428" width="141.68" height="101.016" y="479.5011" clip-path="url(#clipPath2)" stroke="none"/>
    </g>
    <g text-rendering="geometricPrecision" stroke-miterlimit="1.45" shape-rendering="geometricPrecision" transform="matrix(1,0,0,1,-92,-421)" stroke-linecap="butt">
      <rect fill="none" x="126.428" width="141.68" height="101.016" y="479.5011" clip-path="url(#clipPath2)"/>
      <text x="132.428" xml:space="preserve" y="496.6398" clip-path="url(#clipPath2)" font-family="sans-serif" stroke="none">Worker</text>
    </g>
    <g fill="rgb(240,240,255)" text-rendering="geometricPrecision" shape-rendering="geometricPrecision" transform="matrix(1,0,0,1,-92,-421)" stroke="rgb(240,240,255)">
      <rect x="309.16" width="235.12" height="101.016" y="487.0876" clip-path="url(#clipPath2)" stroke="none"/>
    </g>
    <g text-rendering="geometricPrecision" stroke-miterlimit="1.45" shape-rendering="geometricPrecision" transform="matrix(1,0,0,1,-92,-421)" stroke-linecap="butt">
      <rect fill="none" x="309.16" width="235.12" height="101.016" y="487.0876" clip-path="url(#clipPath2)"/>
      <text x="497.2995" xml:space="preserve" y="504.2263" clip-path="url(#clipPath2)" font-family="sans-serif" stroke="none">Master</text>
    </g>
    <g fill="rgb(204,153,255)" text-rendering="geometricPrecision" shape-rendering="geometricPrecision" transform="matrix(1,0,0,1,-92,-421)" stroke="rgb(204,153,255)">
      <rect x="445.5376" width="83.4048" height="16.8609" y="516.0563" clip-path="url(#clipPath2)" stroke="none"/>
    </g>
    <g text-rendering="geometricPrecision" stroke-miterlimit="1.45" shape-rendering="geometricPrecision" transform="matrix(1,0,0,1,-92,-421)" stroke-linecap="butt">
      <rect fill="none" x="445.5376" width="83.4048" height="16.8609" y="516.0563" clip-path="url(#clipPath2)"/>
      <text x="448.4717" xml:space="preserve" y="529.6981" clip-path="url(#clipPath2)" font-family="sans-serif" stroke="none">Docker API</text>
    </g>
    <g fill="rgb(0,204,255)" text-rendering="geometricPrecision" shape-rendering="geometricPrecision" transform="matrix(1,0,0,1,-92,-421)" stroke="rgb(0,204,255)">
      <rect x="328.5488" width="83.4048" height="16.8609" y="516.0563" clip-path="url(#clipPath2)" stroke="none"/>
    </g>
    <g text-rendering="geometricPrecision" stroke-miterlimit="1.45" shape-rendering="geometricPrecision" transform="matrix(1,0,0,1,-92,-421)" stroke-linecap="butt">
      <rect fill="none" x="328.5488" width="83.4048" height="16.8609" y="516.0563" clip-path="url(#clipPath2)"/>
      <text x="331.4829" xml:space="preserve" y="529.6981" clip-path="url(#clipPath2)" font-family="sans-serif" stroke="none">InfluxDB</text>
    </g>
    <g fill="rgb(0,204,255)" text-rendering="geometricPrecision" shape-rendering="geometricPrecision" transform="matrix(1,0,0,1,-92,-421)" stroke="rgb(0,204,255)">
      <rect x="445.5376" width="83.4048" height="16.8609" y="559.1095" clip-path="url(#clipPath2)" stroke="none"/>
    </g>
    <g text-rendering="geometricPrecision" stroke-miterlimit="1.45" shape-rendering="geometricPrecision" transform="matrix(1,0,0,1,-92,-421)" stroke-linecap="butt">
      <rect fill="none" x="445.5376" width="83.4048" height="16.8609" y="559.1095" clip-path="url(#clipPath2)"/>
      <text x="448.4717" xml:space="preserve" y="572.7513" clip-path="url(#clipPath2)" font-family="sans-serif" stroke="none">Grafana</text>
    </g>
    <g fill="rgb(0,204,255)" text-rendering="geometricPrecision" shape-rendering="geometricPrecision" transform="matrix(1,0,0,1,-92,-421)" stroke="rgb(0,204,255)">
      <rect x="328.5488" width="83.4048" height="16.8609" y="559.1095" clip-path="url(#clipPath2)" stroke="none"/>
    </g>
    <g text-rendering="geometricPrecision" stroke-miterlimit="1.45" shape-rendering="geometricPrecision" transform="matrix(1,0,0,1,-92,-421)" stroke-linecap="butt">
      <rect fill="none" x="328.5488" width="83.4048" height="16.8609" y="559.1095" clip-path="url(#clipPath2)"/>
      <text x="331.4829" xml:space="preserve" y="572.7513" clip-path="url(#clipPath2)" font-family="sans-serif" stroke="none">Loadship</text>
    </g>
    <g fill="rgb(240,240,255)" text-rendering="geometricPrecision" shape-rendering="geometricPrecision" transform="matrix(1,0,0,1,-92,-421)" stroke="rgb(240,240,255)">
      <rect x="145.16" width="141.68" height="101.016" y="487.0876" clip-path="url(#clipPath2)" stroke="none"/>
    </g>
    <g text-rendering="geometricPrecision" stroke-miterlimit="1.45" shape-rendering="geometricPrecision" transform="matrix(1,0,0,1,-92,-421)" stroke-linecap="butt">
      <rect fill="none" x="145.16" width="141.68" height="101.016" y="487.0876" clip-path="url(#clipPath2)"/>
      <text x="151.16" xml:space="preserve" y="504.2263" clip-path="url(#clipPath2)" font-family="sans-serif" stroke="none">Worker</text>
    </g>
    <g fill="rgb(204,153,255)" text-rendering="geometricPrecision" shape-rendering="geometricPrecision" transform="matrix(1,0,0,1,-92,-421)" stroke="rgb(204,153,255)">
      <rect x="179.1376" width="83.4048" height="16.8609" y="517.0184" clip-path="url(#clipPath2)" stroke="none"/>
    </g>
    <g text-rendering="geometricPrecision" stroke-miterlimit="1.45" shape-rendering="geometricPrecision" transform="matrix(1,0,0,1,-92,-421)" stroke-linecap="butt">
      <rect fill="none" x="179.1376" width="83.4048" height="16.8609" y="517.0184" clip-path="url(#clipPath2)"/>
      <text x="182.0717" xml:space="preserve" y="530.6602" clip-path="url(#clipPath2)" font-family="sans-serif" stroke="none">Docker API</text>
    </g>
    <g fill="rgb(0,204,255)" text-rendering="geometricPrecision" shape-rendering="geometricPrecision" transform="matrix(1,0,0,1,-92,-421)" stroke="rgb(0,204,255)">
      <rect x="179.1376" width="83.4048" height="16.8609" y="559.1095" clip-path="url(#clipPath2)" stroke="none"/>
    </g>
    <g text-rendering="geometricPrecision" stroke-miterlimit="1.45" shape-rendering="geometricPrecision" transform="matrix(1,0,0,1,-92,-421)" stroke-linecap="butt">
      <rect fill="none" x="179.1376" width="83.4048" height="16.8609" y="559.1095" clip-path="url(#clipPath2)"/>
      <text x="182.0717" xml:space="preserve" y="572.7513" clip-path="url(#clipPath2)" font-family="sans-serif" stroke="none">Loadcoder</text>
    </g>
    <g fill="rgb(240,240,255)" text-rendering="geometricPrecision" shape-rendering="geometricPrecision" transform="matrix(1,0,0,1,-92,-421)" stroke="rgb(240,240,255)">
      <rect x="151.4642" width="203.2391" height="28.6708" y="436.5237" clip-path="url(#clipPath2)" stroke="none"/>
    </g>
    <g text-rendering="geometricPrecision" stroke-miterlimit="1.45" shape-rendering="geometricPrecision" transform="matrix(1,0,0,1,-92,-421)" stroke-linecap="butt">
      <rect fill="none" x="151.4642" width="203.2391" height="28.6708" y="436.5237" clip-path="url(#clipPath2)"/>
      <text x="157.4642" xml:space="preserve" y="453.6624" clip-path="url(#clipPath2)" font-family="sans-serif" stroke="none">Workstation</text>
    </g>
    <g fill="rgb(153,204,255)" text-rendering="geometricPrecision" shape-rendering="geometricPrecision" transform="matrix(1,0,0,1,-92,-421)" stroke="rgb(153,204,255)">
      <rect x="257.817" width="83.4048" height="16.8609" y="440.2267" clip-path="url(#clipPath2)" stroke="none"/>
    </g>
    <g text-rendering="geometricPrecision" stroke-miterlimit="1.45" shape-rendering="geometricPrecision" transform="matrix(1,0,0,1,-92,-421)" stroke-linecap="butt">
      <rect fill="none" x="257.817" width="83.4048" height="16.8609" y="440.2267" clip-path="url(#clipPath2)"/>
      <text x="260.7511" xml:space="preserve" y="453.8685" clip-path="url(#clipPath2)" font-family="sans-serif" stroke="none">Controller</text>
    </g>
    <g fill="rgb(204,255,204)" text-rendering="geometricPrecision" shape-rendering="geometricPrecision" transform="matrix(1,0,0,1,-92,-421)" stroke="rgb(204,255,204)">
      <rect x="179.1376" width="83.4048" height="16.8609" y="542.2486" clip-path="url(#clipPath2)" stroke="none"/>
    </g>
    <g text-rendering="geometricPrecision" stroke-miterlimit="1.45" shape-rendering="geometricPrecision" transform="matrix(1,0,0,1,-92,-421)" stroke-linecap="butt">
      <rect fill="none" x="179.1376" width="83.4048" height="16.8609" y="542.2486" clip-path="url(#clipPath2)"/>
      <text x="182.0717" xml:space="preserve" y="555.8904" clip-path="url(#clipPath2)" font-family="sans-serif" stroke="none">Host volume</text>
      <path fill="none" d="M262.5424 567.54 L320.5488 567.54" clip-path="url(#clipPath2)"/>
      <path d="M328.5488 567.54 L316.5488 562.54 L319.5488 567.54 L316.5488 572.54 Z" clip-path="url(#clipPath2)" stroke="none"/>
      <path fill="none" d="M262.5424 567.54 L300.1955 567.54 L300.1955 524.4868 L320.5488 524.4868" clip-path="url(#clipPath2)"/>
      <path d="M328.5488 524.4868 L316.5488 519.4868 L319.5488 524.4868 L316.5488 529.4868 Z" clip-path="url(#clipPath2)" stroke="none"/>
      <path fill="none" d="M292.8227 457.1127 L292.8227 525.4488 L270.5424 525.4488" clip-path="url(#clipPath2)"/>
      <path d="M262.5424 525.4488 L274.5424 530.4488 L271.5424 525.4488 L274.5424 520.4488 Z" clip-path="url(#clipPath2)" stroke="none"/>
      <path fill="none" d="M341.2218 448.6571 L428.557 448.6571 L428.557 524.4868 L437.5376 524.4868" clip-path="url(#clipPath2)"/>
      <path d="M445.5376 524.4868 L433.5376 519.4868 L436.5376 524.4868 L433.5376 529.4868 Z" clip-path="url(#clipPath2)" stroke="none"/>
      <path fill="none" d="M341.2218 448.6571 L428.557 448.6571 L428.557 567.54 L437.5044 567.54" clip-path="url(#clipPath2)"/>
      <path d="M445.5044 567.54 L433.5044 562.54 L436.5044 567.54 L433.5044 572.54 Z" clip-path="url(#clipPath2)" stroke="none"/>
      <path fill="none" d="M341.2218 448.6571 L428.557 448.6571 L428.557 524.4868 L419.9052 524.4868" clip-path="url(#clipPath2)"/>
      <path d="M411.9052 524.4868 L423.9052 529.4868 L420.9052 524.4868 L423.9052 519.4868 Z" clip-path="url(#clipPath2)" stroke="none"/>
      <path fill="none" d="M341.2218 448.6571 L428.557 448.6571 L428.557 567.54 L419.9536 567.54" clip-path="url(#clipPath2)"/>
      <path d="M411.9536 567.54 L423.9536 572.54 L420.9536 567.54 L423.9536 562.54 Z" clip-path="url(#clipPath2)" stroke="none"/>
    </g>
  </g>
</svg>
