<?xml version="1.0" encoding="UTF-8"?><svg xmlns="http://www.w3.org/2000/svg" xmlns:xlink="http://www.w3.org/1999/xlink" fill-opacity="1" color-rendering="auto" color-interpolation="auto" text-rendering="auto" stroke="black" stroke-linecap="square" width="612" stroke-miterlimit="10" shape-rendering="auto" stroke-opacity="1" fill="black" stroke-dasharray="none" font-weight="normal" stroke-width="1" height="563" font-family="'Dialog'" font-style="normal" stroke-linejoin="miter" font-size="12px" stroke-dashoffset="0" image-rendering="auto">
  <!--Generated by ySVG 2.5-->
  <defs id="genericDefs"/>
  <g>
    <defs id="defs1">
      <clipPath clipPathUnits="userSpaceOnUse" id="clipPath1">
        <path d="M0 0 L612 0 L612 563 L0 563 L0 0 Z"/>
      </clipPath>
      <clipPath clipPathUnits="userSpaceOnUse" id="clipPath2">
        <path d="M172 90 L784 90 L784 653 L172 653 L172 90 Z"/>
      </clipPath>
    </defs>
    <g fill="white" text-rendering="geometricPrecision" shape-rendering="geometricPrecision" transform="translate(-172,-90)" stroke="white">
      <rect x="172" width="612" height="563" y="90" clip-path="url(#clipPath2)" stroke="none"/>
    </g>
    <g fill="white" text-rendering="geometricPrecision" shape-rendering="geometricPrecision" transform="matrix(1,0,0,1,-172,-90)" stroke="white">
      <rect x="187.7977" width="573.4873" height="176.1841" y="105.6059" clip-path="url(#clipPath2)" stroke="none"/>
    </g>
    <g text-rendering="geometricPrecision" stroke-miterlimit="1.45" shape-rendering="geometricPrecision" transform="matrix(1,0,0,1,-172,-90)" stroke-linecap="butt">
      <rect fill="none" x="187.7977" width="573.4873" height="176.1841" y="105.6059" clip-path="url(#clipPath2)"/>
      <text x="193.7977" font-size="20px" y="130.1704" clip-path="url(#clipPath2)" font-family="sans-serif" stroke="none" xml:space="preserve">Performance test</text>
    </g>
    <g fill="rgb(255,204,0)" text-rendering="geometricPrecision" shape-rendering="geometricPrecision" transform="matrix(1,0,0,1,-172,-90)" stroke="rgb(255,204,0)">
      <rect x="187.7977" width="357.16" height="35.04" y="381.7989" clip-path="url(#clipPath2)" stroke="none"/>
    </g>
    <g text-rendering="geometricPrecision" stroke-miterlimit="1.45" shape-rendering="geometricPrecision" transform="matrix(1,0,0,1,-172,-90)" stroke-linecap="butt">
      <rect fill="none" x="187.7977" width="357.16" height="35.04" y="381.7989" clip-path="url(#clipPath2)"/>
      <text x="196.4705" font-size="20px" y="406.2427" clip-path="url(#clipPath2)" font-family="sans-serif" stroke="none" xml:space="preserve">TransactionExecutionResultBuffer</text>
    </g>
    <g fill="rgb(255,204,0)" text-rendering="geometricPrecision" shape-rendering="geometricPrecision" transform="matrix(1,0,0,1,-172,-90)" stroke="rgb(255,204,0)">
      <rect x="610.375" width="150.91" height="35.04" y="381.7989" clip-path="url(#clipPath2)" stroke="none"/>
    </g>
    <g text-rendering="geometricPrecision" stroke-miterlimit="1.45" shape-rendering="geometricPrecision" transform="matrix(1,0,0,1,-172,-90)" stroke-linecap="butt">
      <rect fill="none" x="610.375" width="150.91" height="35.04" y="381.7989" clip-path="url(#clipPath2)"/>
      <text x="614.4189" font-size="20px" y="406.2427" clip-path="url(#clipPath2)" font-family="sans-serif" stroke="none" xml:space="preserve">ThreadRunner</text>
    </g>
    <g fill="yellow" text-rendering="geometricPrecision" shape-rendering="geometricPrecision" transform="matrix(1,0,0,1,-172,-90)" stroke="yellow">
      <rect x="655.1207" width="106.1643" height="35.04" y="537.5" clip-path="url(#clipPath2)" stroke="none"/>
    </g>
    <g text-rendering="geometricPrecision" stroke-miterlimit="1.45" shape-rendering="geometricPrecision" transform="matrix(1,0,0,1,-172,-90)" stroke-linecap="butt">
      <rect fill="none" x="655.1207" width="106.1643" height="35.04" y="537.5" clip-path="url(#clipPath2)"/>
      <text x="661.2692" font-size="20px" y="561.9438" clip-path="url(#clipPath2)" font-family="sans-serif" stroke="none" xml:space="preserve">result.log</text>
    </g>
    <g fill="rgb(255,204,0)" text-rendering="geometricPrecision" shape-rendering="geometricPrecision" transform="matrix(1,0,0,1,-172,-90)" stroke="rgb(255,204,0)">
      <rect x="187.7977" width="224.66" height="35.04" y="462.25" clip-path="url(#clipPath2)" stroke="none"/>
    </g>
    <g text-rendering="geometricPrecision" stroke-miterlimit="1.45" shape-rendering="geometricPrecision" transform="matrix(1,0,0,1,-172,-90)" stroke-linecap="butt">
      <rect fill="none" x="187.7977" width="224.66" height="35.04" y="462.25" clip-path="url(#clipPath2)"/>
      <text x="203.7703" font-size="20px" y="486.6938" clip-path="url(#clipPath2)" font-family="sans-serif" stroke="none" xml:space="preserve">RuntimeResultUser</text>
    </g>
    <g fill="rgb(255,204,0)" text-rendering="geometricPrecision" shape-rendering="geometricPrecision" transform="matrix(1,0,0,1,-172,-90)" stroke="rgb(255,204,0)">
      <rect x="438.5314" width="150.91" height="35.04" y="155.8566" clip-path="url(#clipPath2)" stroke="none"/>
    </g>
    <g text-rendering="geometricPrecision" stroke-miterlimit="1.45" shape-rendering="geometricPrecision" transform="matrix(1,0,0,1,-172,-90)" stroke-linecap="butt">
      <rect fill="none" x="438.5314" width="150.91" height="35.04" y="155.8566" clip-path="url(#clipPath2)"/>
      <text x="446.3497" font-size="20px" y="180.3004" clip-path="url(#clipPath2)" font-family="sans-serif" stroke="none" xml:space="preserve">LoadScenario</text>
    </g>
    <g fill="rgb(255,204,0)" text-rendering="geometricPrecision" shape-rendering="geometricPrecision" transform="matrix(1,0,0,1,-172,-90)" stroke="rgb(255,204,0)">
      <rect x="196.9586" width="150.91" height="35.04" y="220.8966" clip-path="url(#clipPath2)" stroke="none"/>
    </g>
    <g text-rendering="geometricPrecision" stroke-miterlimit="1.45" shape-rendering="geometricPrecision" transform="matrix(1,0,0,1,-172,-90)" stroke-linecap="butt">
      <rect fill="none" x="196.9586" width="150.91" height="35.04" y="220.8966" clip-path="url(#clipPath2)"/>
      <text x="248.2486" font-size="20px" y="245.3405" clip-path="url(#clipPath2)" font-family="sans-serif" stroke="none" xml:space="preserve">Load</text>
    </g>
    <g fill="rgb(255,204,0)" text-rendering="geometricPrecision" shape-rendering="geometricPrecision" transform="matrix(1,0,0,1,-172,-90)" stroke="rgb(255,204,0)">
      <rect x="438.5314" width="150.91" height="35.04" y="220.8966" clip-path="url(#clipPath2)" stroke="none"/>
    </g>
    <g text-rendering="geometricPrecision" stroke-miterlimit="1.45" shape-rendering="geometricPrecision" transform="matrix(1,0,0,1,-172,-90)" stroke-linecap="butt">
      <rect fill="none" x="438.5314" width="150.91" height="35.04" y="220.8966" clip-path="url(#clipPath2)"/>
      <text x="464.6065" font-size="20px" y="245.3405" clip-path="url(#clipPath2)" font-family="sans-serif" stroke="none" xml:space="preserve">Execution</text>
    </g>
    <g fill="rgb(255,204,0)" text-rendering="geometricPrecision" shape-rendering="geometricPrecision" transform="matrix(1,0,0,1,-172,-90)" stroke="rgb(255,204,0)">
      <rect x="187.7977" width="310.7686" height="35.04" y="301.3477" clip-path="url(#clipPath2)" stroke="none"/>
    </g>
    <g text-rendering="geometricPrecision" stroke-miterlimit="1.45" shape-rendering="geometricPrecision" transform="matrix(1,0,0,1,-172,-90)" stroke-linecap="butt">
      <rect fill="none" x="187.7977" width="310.7686" height="35.04" y="301.3477" clip-path="url(#clipPath2)"/>
      <text x="193.0648" font-size="20px" y="325.7916" clip-path="url(#clipPath2)" font-family="sans-serif" stroke="none" xml:space="preserve">RuntimeResultUpdaterRunner</text>
    </g>
    <g fill="rgb(255,204,0)" text-rendering="geometricPrecision" shape-rendering="geometricPrecision" transform="matrix(1,0,0,1,-172,-90)" stroke="rgb(255,204,0)">
      <rect x="470.375" width="290.91" height="35.04" y="462.25" clip-path="url(#clipPath2)" stroke="none"/>
    </g>
    <g text-rendering="geometricPrecision" stroke-miterlimit="1.45" shape-rendering="geometricPrecision" transform="matrix(1,0,0,1,-172,-90)" stroke-linecap="butt">
      <rect fill="none" x="470.375" width="290.91" height="35.04" y="462.25" clip-path="url(#clipPath2)"/>
      <text x="476.4257" font-size="20px" y="486.6938" clip-path="url(#clipPath2)" font-family="sans-serif" stroke="none" xml:space="preserve">TransactionExecutionResult</text>
    </g>
    <g fill="rgb(255,204,0)" text-rendering="geometricPrecision" shape-rendering="geometricPrecision" transform="matrix(1,0,0,1,-172,-90)" stroke="rgb(255,204,0)">
      <rect x="334.2518" width="133.41" height="35.04" y="602.54" clip-path="url(#clipPath2)" stroke="none"/>
    </g>
    <g text-rendering="geometricPrecision" stroke-miterlimit="1.45" shape-rendering="geometricPrecision" transform="matrix(1,0,0,1,-172,-90)" stroke-linecap="butt">
      <rect fill="none" x="334.2518" width="133.41" height="35.04" y="602.54" clip-path="url(#clipPath2)"/>
      <text x="342.1287" font-size="20px" y="626.9838" clip-path="url(#clipPath2)" font-family="sans-serif" stroke="none" xml:space="preserve">ResultChart</text>
    </g>
    <g fill="rgb(255,204,0)" text-rendering="geometricPrecision" shape-rendering="geometricPrecision" transform="matrix(1,0,0,1,-172,-90)" stroke="rgb(255,204,0)">
      <rect x="525.6398" width="133.41" height="35.04" y="602.54" clip-path="url(#clipPath2)" stroke="none"/>
    </g>
    <g text-rendering="geometricPrecision" stroke-miterlimit="1.45" shape-rendering="geometricPrecision" transform="matrix(1,0,0,1,-172,-90)" stroke-linecap="butt">
      <rect fill="none" x="525.6398" width="133.41" height="35.04" y="602.54" clip-path="url(#clipPath2)"/>
      <text x="544.0196" font-size="20px" y="626.9838" clip-path="url(#clipPath2)" font-family="sans-serif" stroke="none" xml:space="preserve">Summary</text>
    </g>
    <g fill="rgb(255,204,0)" text-rendering="geometricPrecision" shape-rendering="geometricPrecision" transform="matrix(1,0,0,1,-172,-90)" stroke="rgb(255,204,0)">
      <rect x="430.7687" width="119.66" height="35.04" y="537.5" clip-path="url(#clipPath2)" stroke="none"/>
    </g>
    <g text-rendering="geometricPrecision" stroke-miterlimit="1.45" shape-rendering="geometricPrecision" transform="matrix(1,0,0,1,-172,-90)" stroke-linecap="butt">
      <rect fill="none" x="430.7687" width="119.66" height="35.04" y="537.5" clip-path="url(#clipPath2)"/>
      <text x="459.2511" font-size="20px" y="561.9438" clip-path="url(#clipPath2)" font-family="sans-serif" stroke="none" xml:space="preserve">Result</text>
    </g>
    <g fill="rgb(255,204,0)" text-rendering="geometricPrecision" shape-rendering="geometricPrecision" transform="matrix(1,0,0,1,-172,-90)" stroke="rgb(255,204,0)">
      <rect x="528.5663" width="174.5275" height="35.04" y="301.3477" clip-path="url(#clipPath2)" stroke="none"/>
    </g>
    <g text-rendering="geometricPrecision" stroke-miterlimit="1.45" shape-rendering="geometricPrecision" transform="matrix(1,0,0,1,-172,-90)" stroke-linecap="butt">
      <rect fill="none" x="528.5663" width="174.5275" height="35.04" y="301.3477" clip-path="url(#clipPath2)"/>
      <text x="555.4394" font-size="20px" y="325.7916" clip-path="url(#clipPath2)" font-family="sans-serif" stroke="none" xml:space="preserve">LoadRunner</text>
    </g>
    <g fill="rgb(255,204,0)" text-rendering="geometricPrecision" shape-rendering="geometricPrecision" transform="matrix(1,0,0,1,-172,-90)" stroke="rgb(255,204,0)">
      <rect x="196.9586" width="150.91" height="35.04" y="155.8566" clip-path="url(#clipPath2)" stroke="none"/>
    </g>
    <g text-rendering="geometricPrecision" stroke-miterlimit="1.45" shape-rendering="geometricPrecision" transform="matrix(1,0,0,1,-172,-90)" stroke-linecap="butt">
      <rect fill="none" x="196.9586" width="150.91" height="35.04" y="155.8566" clip-path="url(#clipPath2)"/>
      <text x="213.7369" font-size="20px" y="180.3004" clip-path="url(#clipPath2)" font-family="sans-serif" stroke="none" xml:space="preserve">Transaction</text>
    </g>
    <g fill="rgb(255,204,0)" text-rendering="geometricPrecision" shape-rendering="geometricPrecision" transform="matrix(1,0,0,1,-172,-90)" stroke="rgb(255,204,0)">
      <rect x="187.7977" width="224.66" height="35.04" y="537.5" clip-path="url(#clipPath2)" stroke="none"/>
    </g>
    <g text-rendering="geometricPrecision" stroke-miterlimit="1.45" shape-rendering="geometricPrecision" transform="matrix(1,0,0,1,-172,-90)" stroke-linecap="butt">
      <rect fill="none" x="187.7977" width="224.66" height="35.04" y="537.5" clip-path="url(#clipPath2)"/>
      <text x="199.0828" font-size="20px" y="561.9438" clip-path="url(#clipPath2)" font-family="sans-serif" stroke="none" xml:space="preserve">RuntimeResultChart</text>
      <path fill="none" d="M277.4059 416.8806 L277.4059 454.227" clip-path="url(#clipPath2)"/>
      <path d="M277.4059 462.227 L282.4059 450.227 L277.4059 453.227 L272.4059 450.227 Z" clip-path="url(#clipPath2)" stroke="none"/>
      <text x="295.0661" font-size="18px" y="444.9877" clip-path="url(#clipPath2)" font-family="sans-serif" stroke="none" xml:space="preserve">provided to</text>
      <path fill="none" d="M713.7474 381.772 L713.7474 173.3766 L597.4414 173.3766" clip-path="url(#clipPath2)"/>
      <path d="M589.4414 173.3766 L601.4414 178.3766 L598.4414 173.3766 L601.4414 168.3766 Z" clip-path="url(#clipPath2)" stroke="none"/>
      <text x="595.2177" font-size="18px" y="160.1152" clip-path="url(#clipPath2)" font-family="sans-serif" stroke="none" xml:space="preserve">repeatedly runs</text>
      <path fill="none" d="M513.9864 190.9182 L513.9864 206.517 L272.4136 206.517 L272.4136 212.8685" clip-path="url(#clipPath2)"/>
      <path d="M272.4136 220.8685 L277.4136 208.8685 L272.4136 211.8685 L267.4136 208.8685 Z" clip-path="url(#clipPath2)" stroke="none"/>
      <path fill="none" d="M347.9129 238.4166 L430.4872 238.4166" clip-path="url(#clipPath2)"/>
      <path d="M438.4872 238.4166 L426.4872 233.4166 L429.4872 238.4166 L426.4872 243.4166 Z" clip-path="url(#clipPath2)" stroke="none"/>
      <text x="359.3351" font-size="18px" y="229.7862" clip-path="url(#clipPath2)" font-family="sans-serif" stroke="none" xml:space="preserve">part of</text>
      <path fill="none" d="M471.3661 255.9672 L471.3661 293.3294" clip-path="url(#clipPath2)"/>
      <path d="M471.3661 301.3294 L476.3661 289.3294 L471.3661 292.3294 L466.3661 289.3294 Z" clip-path="url(#clipPath2)" stroke="none"/>
      <text x="489.1396" font-size="18px" y="277.1601" clip-path="url(#clipPath2)" font-family="sans-serif" stroke="none" xml:space="preserve">starts</text>
      <path fill="none" d="M276.0447 336.395 L276.0447 373.7777" clip-path="url(#clipPath2)"/>
      <path d="M276.0447 381.7777 L281.0447 369.7777 L276.0447 372.7777 L271.0447 369.7777 Z" clip-path="url(#clipPath2)" stroke="none"/>
      <text x="286.8714" font-size="18px" y="365.3248" clip-path="url(#clipPath2)" font-family="sans-serif" stroke="none" xml:space="preserve">copies and clears</text>
      <path fill="none" d="M679.0242 416.8463 L679.0242 454.2138" clip-path="url(#clipPath2)"/>
      <path d="M679.0242 462.2138 L684.0242 450.2138 L679.0242 453.2138 L674.0242 450.2138 Z" clip-path="url(#clipPath2)" stroke="none"/>
      <text x="693.2169" font-size="18px" y="443.0324" clip-path="url(#clipPath2)" font-family="sans-serif" stroke="none" xml:space="preserve">creates</text>
      <path fill="none" d="M513.0627 462.2268 L513.0627 424.8732" clip-path="url(#clipPath2)"/>
      <path d="M513.0627 416.8732 L508.0627 428.8732 L513.0627 425.8732 L518.0627 428.8732 Z" clip-path="url(#clipPath2)" stroke="none"/>
      <text x="523.2966" font-size="18px" y="446.8672" clip-path="url(#clipPath2)" font-family="sans-serif" stroke="none" xml:space="preserve">stored in</text>
      <path fill="none" d="M679.2806 497.3114 L679.2806 529.4851" clip-path="url(#clipPath2)"/>
      <path d="M679.2806 537.4851 L684.2806 525.4851 L679.2806 528.4851 L674.2806 525.4851 Z" clip-path="url(#clipPath2)" stroke="none"/>
      <text x="683.2421" font-size="18px" y="521.0678" clip-path="url(#clipPath2)" font-family="sans-serif" stroke="none" xml:space="preserve">logged in</text>
      <path fill="none" d="M655.1207 555.02 L558.4287 555.02" clip-path="url(#clipPath2)"/>
      <path d="M550.4287 555.02 L562.4287 560.02 L559.4287 555.02 L562.4287 550.02 Z" clip-path="url(#clipPath2)" stroke="none"/>
      <text x="557.2241" font-size="18px" y="544.6852" clip-path="url(#clipPath2)" font-family="sans-serif" stroke="none" xml:space="preserve">generates</text>
      <path fill="none" d="M443.5771 572.5419 L443.5771 594.5312" clip-path="url(#clipPath2)"/>
      <path d="M443.5771 602.5312 L448.5771 590.5312 L443.5771 593.5312 L438.5771 590.5312 Z" clip-path="url(#clipPath2)" stroke="none"/>
      <text x="457.6264" font-size="18px" y="595.7179" clip-path="url(#clipPath2)" font-family="sans-serif" stroke="none" xml:space="preserve">Input to</text>
      <path fill="none" d="M541.9457 572.5443 L541.9457 594.5352" clip-path="url(#clipPath2)"/>
      <path d="M541.9457 602.5352 L546.9457 590.5352 L541.9457 593.5352 L536.9457 590.5352 Z" clip-path="url(#clipPath2)" stroke="none"/>
      <path fill="none" d="M558.5368 255.9435 L558.5368 293.3073" clip-path="url(#clipPath2)"/>
      <path d="M558.5368 301.3073 L563.5368 289.3073 L558.5368 292.3073 L553.5368 289.3073 Z" clip-path="url(#clipPath2)" stroke="none"/>
      <path fill="none" d="M678.6776 336.3936 L678.6776 373.77" clip-path="url(#clipPath2)"/>
      <path d="M678.6776 381.77 L683.6776 369.77 L678.6776 372.77 L673.6776 369.77 Z" clip-path="url(#clipPath2)" stroke="none"/>
      <text x="615.7595" font-size="18px" y="365.2479" clip-path="url(#clipPath2)" font-family="sans-serif" stroke="none" xml:space="preserve">starts</text>
      <path fill="none" d="M438.4908 173.3766 L355.8686 173.3766" clip-path="url(#clipPath2)"/>
      <path d="M347.8686 173.3766 L359.8686 178.3766 L356.8686 173.3766 L359.8686 168.3766 Z" clip-path="url(#clipPath2)" stroke="none"/>
      <text x="351.0653" font-size="18px" y="164.8387" clip-path="url(#clipPath2)" font-family="sans-serif" stroke="none" xml:space="preserve">performs</text>
      <path fill="none" d="M277.9345 497.325 L277.9345 529.4846" clip-path="url(#clipPath2)"/>
      <path d="M277.9345 537.4846 L282.9345 525.4846 L277.9345 528.4846 L272.9345 525.4846 Z" clip-path="url(#clipPath2)" stroke="none"/>
      <text x="292.5341" font-size="18px" y="521.9395" clip-path="url(#clipPath2)" font-family="sans-serif" stroke="none" xml:space="preserve">implements</text>
    </g>
  </g>
</svg>
