<?xml version="1.0" encoding="UTF-8"?><svg xmlns="http://www.w3.org/2000/svg" xmlns:xlink="http://www.w3.org/1999/xlink" fill-opacity="1" color-rendering="auto" color-interpolation="auto" text-rendering="auto" stroke="black" stroke-linecap="square" width="730" stroke-miterlimit="10" shape-rendering="auto" stroke-opacity="1" fill="black" stroke-dasharray="none" font-weight="normal" stroke-width="1" height="164" font-family="'Dialog'" font-style="normal" stroke-linejoin="miter" font-size="12px" stroke-dashoffset="0" image-rendering="auto">
  <!--Generated by ySVG 2.5-->
  <defs id="genericDefs"/>
  <g>
    <defs id="defs1">
      <clipPath clipPathUnits="userSpaceOnUse" id="clipPath1">
        <path d="M0 0 L730 0 L730 164 L0 164 L0 0 Z"/>
      </clipPath>
      <clipPath clipPathUnits="userSpaceOnUse" id="clipPath2">
        <path d="M164 427 L529 427 L529 509 L164 509 L164 427 Z"/>
      </clipPath>
    </defs>
    <g fill="rgb(240,240,255)" text-rendering="geometricPrecision" shape-rendering="geometricPrecision" transform="matrix(2,0,0,2,-328,-854)" stroke="rgb(240,240,255)">
      <rect x="172.0787" width="296.6156" height="65.3153" y="435.4592" clip-path="url(#clipPath2)" stroke="none"/>
    </g>
    <g text-rendering="geometricPrecision" stroke-miterlimit="1.45" shape-rendering="geometricPrecision" transform="matrix(2,0,0,2,-328,-854)" stroke-linecap="butt">
      <rect fill="none" x="172.0787" width="296.6156" height="65.3153" y="435.4592" clip-path="url(#clipPath2)"/>
      <text x="178.0787" xml:space="preserve" y="452.5979" clip-path="url(#clipPath2)" font-family="sans-serif" stroke="none">Load Test Project</text>
    </g>
    <g fill="rgb(153,204,255)" text-rendering="geometricPrecision" shape-rendering="geometricPrecision" transform="matrix(2,0,0,2,-328,-854)" stroke="rgb(153,204,255)">
      <rect x="227.8551" width="83.4048" height="23.3621" y="472.0994" clip-path="url(#clipPath2)" stroke="none"/>
    </g>
    <g text-rendering="geometricPrecision" stroke-miterlimit="1.45" shape-rendering="geometricPrecision" transform="matrix(2,0,0,2,-328,-854)" stroke-linecap="butt">
      <rect fill="none" x="227.8551" width="83.4048" height="23.3621" y="472.0994" clip-path="url(#clipPath2)"/>
      <text x="230.7892" xml:space="preserve" y="485.9353" clip-path="url(#clipPath2)" font-family="sans-serif" stroke="none">Controller</text>
    </g>
    <g fill="rgb(153,204,255)" text-rendering="geometricPrecision" shape-rendering="geometricPrecision" transform="matrix(2,0,0,2,-328,-854)" stroke="rgb(153,204,255)">
      <rect x="320.5005" width="100.7063" height="16.1531" y="479.3084" clip-path="url(#clipPath2)" stroke="none"/>
    </g>
    <g text-rendering="geometricPrecision" stroke-miterlimit="1.45" shape-rendering="geometricPrecision" transform="matrix(2,0,0,2,-328,-854)" stroke-linecap="butt">
      <rect fill="none" x="320.5005" width="100.7063" height="16.1531" y="479.3084" clip-path="url(#clipPath2)"/>
      <text x="323.6283" xml:space="preserve" y="492.9291" clip-path="url(#clipPath2)" font-family="sans-serif" stroke="none">loadcoder.conf</text>
    </g>
    <g fill="rgb(153,204,255)" text-rendering="geometricPrecision" shape-rendering="geometricPrecision" transform="matrix(2,0,0,2,-328,-854)" stroke="rgb(153,204,255)">
      <rect x="320.5005" width="100.7063" height="16.1531" y="459.0163" clip-path="url(#clipPath2)" stroke="none"/>
    </g>
    <g text-rendering="geometricPrecision" stroke-miterlimit="1.45" shape-rendering="geometricPrecision" transform="matrix(2,0,0,2,-328,-854)" stroke-linecap="butt">
      <rect fill="none" x="320.5005" width="100.7063" height="16.1531" y="459.0163" clip-path="url(#clipPath2)"/>
      <text x="323.6283" xml:space="preserve" y="472.637" clip-path="url(#clipPath2)" font-family="sans-serif" stroke="none">test.sh</text>
    </g>
    <g fill="rgb(153,204,255)" text-rendering="geometricPrecision" shape-rendering="geometricPrecision" transform="matrix(2,0,0,2,-328,-854)" stroke="rgb(153,204,255)">
      <rect x="320.5005" width="100.7063" height="16.1531" y="438.7243" clip-path="url(#clipPath2)" stroke="none"/>
    </g>
    <g text-rendering="geometricPrecision" stroke-miterlimit="1.45" shape-rendering="geometricPrecision" transform="matrix(2,0,0,2,-328,-854)" stroke-linecap="butt">
      <rect fill="none" x="320.5005" width="100.7063" height="16.1531" y="438.7243" clip-path="url(#clipPath2)"/>
      <text x="323.6283" xml:space="preserve" y="452.345" clip-path="url(#clipPath2)" font-family="sans-serif" stroke="none">Loadcoder test</text>
    </g>
    <g fill="rgb(255,153,0)" text-rendering="geometricPrecision" shape-rendering="geometricPrecision" transform="matrix(2,0,0,2,-328,-854)" stroke="rgb(255,153,0)">
      <rect x="495.3444" width="25.0778" height="23.3621" y="455.4118" clip-path="url(#clipPath2)" stroke="none"/>
    </g>
    <g text-rendering="geometricPrecision" stroke-miterlimit="1.45" shape-rendering="geometricPrecision" transform="matrix(2,0,0,2,-328,-854)" stroke-linecap="butt">
      <rect fill="none" x="495.3444" width="25.0778" height="23.3621" y="455.4118" clip-path="url(#clipPath2)"/>
      <text x="497.6252" xml:space="preserve" y="469.2477" clip-path="url(#clipPath2)" font-family="sans-serif" stroke="none">zip</text>
      <path fill="none" d="M421.2068 467.0929 L487.3444 467.0929" clip-path="url(#clipPath2)"/>
      <path d="M495.3444 467.0929 L483.3444 462.0929 L486.3444 467.0929 L483.3444 472.0929 Z" clip-path="url(#clipPath2)" stroke="none"/>
      <path fill="none" d="M421.2068 446.8008 L449.4783 446.8008 L449.4783 467.0929 L487.3444 467.0929" clip-path="url(#clipPath2)"/>
      <path d="M495.3444 467.0929 L483.3444 462.0929 L486.3444 467.0929 L483.3444 472.0929 Z" clip-path="url(#clipPath2)" stroke="none"/>
      <path fill="none" d="M421.2068 487.3849 L449.4783 487.3849 L449.4783 467.0929 L487.3444 467.0929" clip-path="url(#clipPath2)"/>
      <path d="M495.3444 467.0929 L483.3444 462.0929 L486.3444 467.0929 L483.3444 472.0929 Z" clip-path="url(#clipPath2)" stroke="none"/>
    </g>
  </g>
</svg>
