<?xml version="1.0" encoding="UTF-8"?><svg xmlns="http://www.w3.org/2000/svg" xmlns:xlink="http://www.w3.org/1999/xlink" fill-opacity="1" color-rendering="auto" color-interpolation="auto" text-rendering="auto" stroke="black" stroke-linecap="square" width="348" stroke-miterlimit="10" shape-rendering="auto" stroke-opacity="1" fill="black" stroke-dasharray="none" font-weight="normal" stroke-width="1" height="79" font-family="'Dialog'" font-style="normal" stroke-linejoin="miter" font-size="12px" stroke-dashoffset="0" image-rendering="auto">
  <!--Generated by ySVG 2.5-->
  <defs id="genericDefs"/>
  <g>
    <defs id="defs1">
      <clipPath clipPathUnits="userSpaceOnUse" id="clipPath1">
        <path d="M0 0 L348 0 L348 79 L0 79 L0 0 Z"/>
      </clipPath>
      <clipPath clipPathUnits="userSpaceOnUse" id="clipPath2">
        <path d="M123 437 L471 437 L471 516 L123 516 L123 437 Z"/>
      </clipPath>
    </defs>
    <g fill="rgb(240,240,255)" text-rendering="geometricPrecision" shape-rendering="geometricPrecision" transform="matrix(1,0,0,1,-123,-437)" stroke="rgb(240,240,255)">
      <rect x="138.0819" width="317.5052" height="48.5217" y="452.2528" clip-path="url(#clipPath2)" stroke="none"/>
    </g>
    <g text-rendering="geometricPrecision" stroke-miterlimit="1.45" shape-rendering="geometricPrecision" transform="matrix(1,0,0,1,-123,-437)" stroke-linecap="butt">
      <rect fill="none" x="138.0819" width="317.5052" height="48.5217" y="452.2528" clip-path="url(#clipPath2)"/>
      <text x="149.1204" xml:space="preserve" y="473.6836" clip-path="url(#clipPath2)" font-family="sans-serif" stroke="none">Load Test</text>
      <text x="157.596" xml:space="preserve" y="487.6523" clip-path="url(#clipPath2)" font-family="sans-serif" stroke="none">Project</text>
    </g>
    <g fill="rgb(153,204,255)" text-rendering="geometricPrecision" shape-rendering="geometricPrecision" transform="matrix(1,0,0,1,-123,-437)" stroke="rgb(153,204,255)">
      <rect x="229.5693" width="105.0378" height="16.1531" y="459.0163" clip-path="url(#clipPath2)" stroke="none"/>
    </g>
    <g text-rendering="geometricPrecision" stroke-miterlimit="1.45" shape-rendering="geometricPrecision" transform="matrix(1,0,0,1,-123,-437)" stroke-linecap="butt">
      <rect fill="none" x="229.5693" width="105.0378" height="16.1531" y="459.0163" clip-path="url(#clipPath2)"/>
      <text x="232.7456" xml:space="preserve" y="472.637" clip-path="url(#clipPath2)" font-family="sans-serif" stroke="none">Controller</text>
    </g>
    <g fill="rgb(153,204,255)" text-rendering="geometricPrecision" shape-rendering="geometricPrecision" transform="matrix(1,0,0,1,-123,-437)" stroke="rgb(153,204,255)">
      <rect x="345.4861" width="100.7063" height="16.1531" y="479.3084" clip-path="url(#clipPath2)" stroke="none"/>
    </g>
    <g text-rendering="geometricPrecision" stroke-miterlimit="1.45" shape-rendering="geometricPrecision" transform="matrix(1,0,0,1,-123,-437)" stroke-linecap="butt">
      <rect fill="none" x="345.4861" width="100.7063" height="16.1531" y="479.3084" clip-path="url(#clipPath2)"/>
      <text x="348.6139" xml:space="preserve" y="492.9291" clip-path="url(#clipPath2)" font-family="sans-serif" stroke="none">loadcoder.conf</text>
    </g>
    <g fill="rgb(153,204,255)" text-rendering="geometricPrecision" shape-rendering="geometricPrecision" transform="matrix(1,0,0,1,-123,-437)" stroke="rgb(153,204,255)">
      <rect x="345.4861" width="100.7063" height="16.1531" y="459.0163" clip-path="url(#clipPath2)" stroke="none"/>
    </g>
    <g text-rendering="geometricPrecision" stroke-miterlimit="1.45" shape-rendering="geometricPrecision" transform="matrix(1,0,0,1,-123,-437)" stroke-linecap="butt">
      <rect fill="none" x="345.4861" width="100.7063" height="16.1531" y="459.0163" clip-path="url(#clipPath2)"/>
      <text x="348.6139" xml:space="preserve" y="472.637" clip-path="url(#clipPath2)" font-family="sans-serif" stroke="none">test.sh</text>
    </g>
    <g fill="rgb(153,204,255)" text-rendering="geometricPrecision" shape-rendering="geometricPrecision" transform="matrix(1,0,0,1,-123,-437)" stroke="rgb(153,204,255)">
      <rect x="229.5693" width="105.0378" height="16.1531" y="479.3084" clip-path="url(#clipPath2)" stroke="none"/>
    </g>
    <g text-rendering="geometricPrecision" stroke-miterlimit="1.45" shape-rendering="geometricPrecision" transform="matrix(1,0,0,1,-123,-437)" stroke-linecap="butt">
      <rect fill="none" x="229.5693" width="105.0378" height="16.1531" y="479.3084" clip-path="url(#clipPath2)"/>
      <text x="232.7456" xml:space="preserve" y="492.9291" clip-path="url(#clipPath2)" font-family="sans-serif" stroke="none">Loadcoder test</text>
    </g>
  </g>
</svg>
