<?xml version="1.0" encoding="UTF-8"?><svg xmlns="http://www.w3.org/2000/svg" xmlns:xlink="http://www.w3.org/1999/xlink" fill-opacity="1" color-rendering="auto" color-interpolation="auto" text-rendering="auto" stroke="black" stroke-linecap="square" width="811" stroke-miterlimit="10" shape-rendering="auto" stroke-opacity="1" fill="black" stroke-dasharray="none" font-weight="normal" stroke-width="1" height="114" font-family="'Dialog'" font-style="normal" stroke-linejoin="miter" font-size="12px" stroke-dashoffset="0" image-rendering="auto">
  <!--Generated by ySVG 2.5-->
  <defs id="genericDefs"/>
  <g>
    <defs id="defs1">
      <clipPath clipPathUnits="userSpaceOnUse" id="clipPath1">
        <path d="M0 0 L811 0 L811 114 L0 114 L0 0 Z"/>
      </clipPath>
      <clipPath clipPathUnits="userSpaceOnUse" id="clipPath2">
        <path d="M-61 238 L750 238 L750 352 L-61 352 L-61 238 Z"/>
      </clipPath>
    </defs>
    <g fill="rgb(240,240,255)" text-rendering="geometricPrecision" shape-rendering="geometricPrecision" transform="matrix(1,0,0,1,61,-238)" stroke="rgb(240,240,255)">
      <rect x="265.0102" width="365.2487" height="83.8708" y="253.1" clip-path="url(#clipPath2)" stroke="none"/>
    </g>
    <g text-rendering="geometricPrecision" stroke-miterlimit="1.45" shape-rendering="geometricPrecision" transform="matrix(1,0,0,1,61,-238)" stroke-linecap="butt">
      <rect fill="none" x="265.0102" width="365.2487" height="83.8708" y="253.1" clip-path="url(#clipPath2)"/>
      <text x="561.3878" xml:space="preserve" y="270.2387" clip-path="url(#clipPath2)" font-family="sans-serif" stroke="none">Loadcoder</text>
      <text x="564.3937" xml:space="preserve" y="284.2074" clip-path="url(#clipPath2)" font-family="sans-serif" stroke="none">container</text>
    </g>
    <g fill="rgb(153,204,255)" text-rendering="geometricPrecision" shape-rendering="geometricPrecision" transform="matrix(1,0,0,1,61,-238)" stroke="rgb(153,204,255)">
      <rect x="443.9576" width="83.1751" height="17.1508" y="310.8766" clip-path="url(#clipPath2)" stroke="none"/>
    </g>
    <g text-rendering="geometricPrecision" stroke-miterlimit="1.45" shape-rendering="geometricPrecision" transform="matrix(1,0,0,1,61,-238)" stroke-linecap="butt">
      <rect fill="none" x="443.9576" width="83.1751" height="17.1508" y="310.8766" clip-path="url(#clipPath2)"/>
      <text x="447.3397" xml:space="preserve" y="323.6064" clip-path="url(#clipPath2)" font-family="sans-serif" stroke="none">settings.xml</text>
    </g>
    <g fill="rgb(153,204,255)" text-rendering="geometricPrecision" shape-rendering="geometricPrecision" transform="matrix(1,0,0,1,61,-238)" stroke="rgb(153,204,255)">
      <rect x="443.9576" width="83.1751" height="17.1508" y="293.7258" clip-path="url(#clipPath2)" stroke="none"/>
    </g>
    <g text-rendering="geometricPrecision" stroke-miterlimit="1.45" shape-rendering="geometricPrecision" transform="matrix(1,0,0,1,61,-238)" stroke-linecap="butt">
      <rect fill="none" x="443.9576" width="83.1751" height="17.1508" y="293.7258" clip-path="url(#clipPath2)"/>
      <text x="451.7518" xml:space="preserve" y="306.4555" clip-path="url(#clipPath2)" font-family="sans-serif" stroke="none">Maven conf</text>
    </g>
    <g fill="rgb(153,204,255)" text-rendering="geometricPrecision" shape-rendering="geometricPrecision" transform="matrix(1,0,0,1,61,-238)" stroke="rgb(153,204,255)">
      <rect x="443.9576" width="83.1751" height="17.1508" y="263.7258" clip-path="url(#clipPath2)" stroke="none"/>
    </g>
    <g text-rendering="geometricPrecision" stroke-miterlimit="1.45" shape-rendering="geometricPrecision" transform="matrix(1,0,0,1,61,-238)" stroke-linecap="butt">
      <rect fill="none" x="443.9576" width="83.1751" height="17.1508" y="263.7258" clip-path="url(#clipPath2)"/>
      <text x="445.5409" xml:space="preserve" y="276.4555" clip-path="url(#clipPath2)" font-family="sans-serif" stroke="none">Host volume</text>
    </g>
    <g fill="rgb(153,204,255)" text-rendering="geometricPrecision" shape-rendering="geometricPrecision" transform="matrix(1,0,0,1,61,-238)" stroke="rgb(153,204,255)">
      <rect x="651.0751" width="83.1751" height="30.7542" y="304.075" clip-path="url(#clipPath2)" stroke="none"/>
    </g>
    <g text-rendering="geometricPrecision" stroke-miterlimit="1.45" shape-rendering="geometricPrecision" transform="matrix(1,0,0,1,61,-238)" stroke-linecap="butt">
      <rect fill="none" x="651.0751" width="83.1751" height="30.7542" y="304.075" clip-path="url(#clipPath2)"/>
      <text x="653.3264" xml:space="preserve" y="316.622" clip-path="url(#clipPath2)" font-family="sans-serif" stroke="none">Local Maven</text>
      <text x="658.6145" xml:space="preserve" y="330.5907" clip-path="url(#clipPath2)" font-family="sans-serif" stroke="none">Repository</text>
    </g>
    <g fill="rgb(240,240,255)" text-rendering="geometricPrecision" shape-rendering="geometricPrecision" transform="matrix(1,0,0,1,61,-238)" stroke="rgb(240,240,255)">
      <rect x="-45.1649" width="265.7751" height="83.8708" y="253.1" clip-path="url(#clipPath2)" stroke="none"/>
    </g>
    <g text-rendering="geometricPrecision" stroke-miterlimit="1.45" shape-rendering="geometricPrecision" transform="matrix(1,0,0,1,61,-238)" stroke-linecap="butt">
      <rect fill="none" x="-45.1649" width="265.7751" height="83.8708" y="253.1" clip-path="url(#clipPath2)"/>
      <text x="-39.1649" xml:space="preserve" y="270.2387" clip-path="url(#clipPath2)" font-family="sans-serif" stroke="none">Workstation</text>
    </g>
    <g fill="rgb(153,204,255)" text-rendering="geometricPrecision" shape-rendering="geometricPrecision" transform="matrix(1,0,0,1,61,-238)" stroke="rgb(153,204,255)">
      <rect x="-26.6714" width="83.1751" height="17.1508" y="310.8766" clip-path="url(#clipPath2)" stroke="none"/>
    </g>
    <g text-rendering="geometricPrecision" stroke-miterlimit="1.45" shape-rendering="geometricPrecision" transform="matrix(1,0,0,1,61,-238)" stroke-linecap="butt">
      <rect fill="none" x="-26.6714" width="83.1751" height="17.1508" y="310.8766" clip-path="url(#clipPath2)"/>
      <text x="-23.2893" xml:space="preserve" y="323.6064" clip-path="url(#clipPath2)" font-family="sans-serif" stroke="none">settings.xml</text>
    </g>
    <g fill="rgb(153,204,255)" text-rendering="geometricPrecision" shape-rendering="geometricPrecision" transform="matrix(1,0,0,1,61,-238)" stroke="rgb(153,204,255)">
      <rect x="-26.6714" width="83.1751" height="17.1508" y="293.7258" clip-path="url(#clipPath2)" stroke="none"/>
    </g>
    <g text-rendering="geometricPrecision" stroke-miterlimit="1.45" shape-rendering="geometricPrecision" transform="matrix(1,0,0,1,61,-238)" stroke-linecap="butt">
      <rect fill="none" x="-26.6714" width="83.1751" height="17.1508" y="293.7258" clip-path="url(#clipPath2)"/>
      <text x="-18.8772" xml:space="preserve" y="306.4555" clip-path="url(#clipPath2)" font-family="sans-serif" stroke="none">Maven conf</text>
    </g>
    <g fill="white" text-rendering="geometricPrecision" shape-rendering="geometricPrecision" transform="matrix(1,0,0,1,61,-238)" stroke="white">
      <rect x="86.5037" width="123.1351" height="65.1692" y="265.8675" clip-path="url(#clipPath2)" stroke="none"/>
    </g>
    <g text-rendering="geometricPrecision" stroke-miterlimit="1.45" shape-rendering="geometricPrecision" transform="matrix(1,0,0,1,61,-238)" stroke-linecap="butt">
      <rect fill="none" x="86.5037" width="123.1351" height="65.1692" y="265.8675" clip-path="url(#clipPath2)"/>
      <text x="92.5037" xml:space="preserve" y="283.0062" clip-path="url(#clipPath2)" font-family="sans-serif" stroke="none">Load test project</text>
    </g>
    <g fill="rgb(153,204,255)" text-rendering="geometricPrecision" shape-rendering="geometricPrecision" transform="matrix(1,0,0,1,61,-238)" stroke="rgb(153,204,255)">
      <rect x="101.3702" width="50.5351" height="17.1508" y="288.6184" clip-path="url(#clipPath2)" stroke="none"/>
    </g>
    <g text-rendering="geometricPrecision" stroke-miterlimit="1.45" shape-rendering="geometricPrecision" transform="matrix(1,0,0,1,61,-238)" stroke-linecap="butt">
      <rect fill="none" x="101.3702" width="50.5351" height="17.1508" y="288.6184" clip-path="url(#clipPath2)"/>
      <text x="105.1885" xml:space="preserve" y="301.3481" clip-path="url(#clipPath2)" font-family="sans-serif" stroke="none">test.sh</text>
    </g>
    <g fill="rgb(153,204,255)" text-rendering="geometricPrecision" shape-rendering="geometricPrecision" transform="matrix(1,0,0,1,61,-238)" stroke="rgb(153,204,255)">
      <rect x="101.3702" width="83.1751" height="17.1508" y="310.8766" clip-path="url(#clipPath2)" stroke="none"/>
    </g>
    <g text-rendering="geometricPrecision" stroke-miterlimit="1.45" shape-rendering="geometricPrecision" transform="matrix(1,0,0,1,61,-238)" stroke-linecap="butt">
      <rect fill="none" x="101.3702" width="83.1751" height="17.1508" y="310.8766" clip-path="url(#clipPath2)"/>
      <text x="104.7523" xml:space="preserve" y="323.6064" clip-path="url(#clipPath2)" font-family="sans-serif" stroke="none">settings.xml</text>
    </g>
    <g fill="white" text-rendering="geometricPrecision" shape-rendering="geometricPrecision" transform="matrix(1,0,0,1,61,-238)" stroke="white">
      <rect x="298.8874" width="123.1351" height="65.1692" y="265.8675" clip-path="url(#clipPath2)" stroke="none"/>
    </g>
    <g text-rendering="geometricPrecision" stroke-miterlimit="1.45" shape-rendering="geometricPrecision" transform="matrix(1,0,0,1,61,-238)" stroke-linecap="butt">
      <rect fill="none" x="298.8874" width="123.1351" height="65.1692" y="265.8675" clip-path="url(#clipPath2)"/>
      <text x="304.8874" xml:space="preserve" y="283.0062" clip-path="url(#clipPath2)" font-family="sans-serif" stroke="none">Load test project</text>
    </g>
    <g fill="rgb(153,204,255)" text-rendering="geometricPrecision" shape-rendering="geometricPrecision" transform="matrix(1,0,0,1,61,-238)" stroke="rgb(153,204,255)">
      <rect x="313.7539" width="50.5351" height="17.1508" y="288.6184" clip-path="url(#clipPath2)" stroke="none"/>
    </g>
    <g text-rendering="geometricPrecision" stroke-miterlimit="1.45" shape-rendering="geometricPrecision" transform="matrix(1,0,0,1,61,-238)" stroke-linecap="butt">
      <rect fill="none" x="313.7539" width="50.5351" height="17.1508" y="288.6184" clip-path="url(#clipPath2)"/>
      <text x="317.5722" xml:space="preserve" y="301.3481" clip-path="url(#clipPath2)" font-family="sans-serif" stroke="none">test.sh</text>
    </g>
    <g fill="rgb(153,204,255)" text-rendering="geometricPrecision" shape-rendering="geometricPrecision" transform="matrix(1,0,0,1,61,-238)" stroke="rgb(153,204,255)">
      <rect x="313.7539" width="83.1751" height="17.1508" y="310.8766" clip-path="url(#clipPath2)" stroke="none"/>
    </g>
    <g text-rendering="geometricPrecision" stroke-miterlimit="1.45" shape-rendering="geometricPrecision" transform="matrix(1,0,0,1,61,-238)" stroke-linecap="butt">
      <rect fill="none" x="313.7539" width="83.1751" height="17.1508" y="310.8766" clip-path="url(#clipPath2)"/>
      <text x="317.136" xml:space="preserve" y="323.6064" clip-path="url(#clipPath2)" font-family="sans-serif" stroke="none">settings.xml</text>
      <path fill="none" d="M527.1326 319.4521 L548.92 319.4521 L548.92 272.3012 L535.1326 272.3012" clip-path="url(#clipPath2)"/>
      <path d="M527.1326 272.3012 L539.1326 277.3012 L536.1326 272.3012 L539.1326 267.3012 Z" clip-path="url(#clipPath2)" stroke="none"/>
      <text x="535.1218" xml:space="preserve" y="291.0873" clip-path="url(#clipPath2)" font-family="sans-serif" stroke="none">5</text>
      <path fill="none" d="M527.1326 319.4521 L643.0751 319.4521" clip-path="url(#clipPath2)"/>
      <path d="M651.0751 319.4521 L639.0751 314.4521 L642.0751 319.4521 L639.0751 324.4521 Z" clip-path="url(#clipPath2)" stroke="none"/>
      <text x="591.1218" xml:space="preserve" y="313.4873" clip-path="url(#clipPath2)" font-family="sans-serif" stroke="none">6</text>
      <path fill="none" d="M56.5037 319.4521 L93.3702 319.4521" clip-path="url(#clipPath2)"/>
      <path d="M101.3702 319.4521 L89.3702 314.4521 L92.3702 319.4521 L89.3702 324.4521 Z" clip-path="url(#clipPath2)" stroke="none"/>
      <text x="67.1218" xml:space="preserve" y="311.0873" clip-path="url(#clipPath2)" font-family="sans-serif" stroke="none">1</text>
      <path fill="none" d="M151.9053 297.1938 L174.74 297.1938 L174.74 302.84" clip-path="url(#clipPath2)"/>
      <path d="M174.74 310.84 L179.74 298.84 L174.74 301.84 L169.74 298.84 Z" clip-path="url(#clipPath2)" stroke="none"/>
      <text x="183.9218" xml:space="preserve" y="302.2873" clip-path="url(#clipPath2)" font-family="sans-serif" stroke="none">2</text>
      <path fill="none" d="M209.6388 298.4521 L290.8874 298.4521" clip-path="url(#clipPath2)"/>
      <path d="M298.8874 298.4521 L286.8874 293.4521 L289.8874 298.4521 L286.8874 303.4521 Z" clip-path="url(#clipPath2)" stroke="none"/>
      <text x="231.9218" xml:space="preserve" y="289.4873" clip-path="url(#clipPath2)" font-family="sans-serif" stroke="none">3</text>
      <path fill="none" d="M396.929 319.4521 L435.9576 319.4521" clip-path="url(#clipPath2)"/>
      <path d="M443.9576 319.4521 L431.9576 314.4521 L434.9576 319.4521 L431.9576 324.4521 Z" clip-path="url(#clipPath2)" stroke="none"/>
      <text x="405.5219" xml:space="preserve" y="313.4873" clip-path="url(#clipPath2)" font-family="sans-serif" stroke="none">4</text>
    </g>
  </g>
</svg>
