<?xml version="1.0" encoding="UTF-8"?><svg xmlns="http://www.w3.org/2000/svg" xmlns:xlink="http://www.w3.org/1999/xlink" fill-opacity="1" color-rendering="auto" color-interpolation="auto" text-rendering="auto" stroke="black" stroke-linecap="square" width="594" stroke-miterlimit="10" shape-rendering="auto" stroke-opacity="1" fill="black" stroke-dasharray="none" font-weight="normal" stroke-width="1" height="169" font-family="'Dialog'" font-style="normal" stroke-linejoin="miter" font-size="12px" stroke-dashoffset="0" image-rendering="auto">
  <!--Generated by ySVG 2.5-->
  <defs id="genericDefs"/>
  <g>
    <defs id="defs1">
      <clipPath clipPathUnits="userSpaceOnUse" id="clipPath1">
        <path d="M0 0 L594 0 L594 169 L0 169 L0 0 Z"/>
      </clipPath>
      <clipPath clipPathUnits="userSpaceOnUse" id="clipPath2">
        <path d="M44 509 L638 509 L638 678 L44 678 L44 509 Z"/>
      </clipPath>
    </defs>
    <g fill="rgb(240,240,255)" text-rendering="geometricPrecision" shape-rendering="geometricPrecision" transform="matrix(1,0,0,1,-44,-509)" stroke="rgb(240,240,255)">
      <rect x="59.88" width="137.68" height="70.616" y="524.0268" clip-path="url(#clipPath2)" stroke="none"/>
    </g>
    <g text-rendering="geometricPrecision" stroke-miterlimit="1.45" shape-rendering="geometricPrecision" transform="matrix(1,0,0,1,-44,-509)" stroke-linecap="butt">
      <rect fill="none" x="59.88" width="137.68" height="70.616" y="524.0268" clip-path="url(#clipPath2)"/>
      <text x="65.88" xml:space="preserve" y="541.1654" clip-path="url(#clipPath2)" font-family="sans-serif" stroke="none">Worker</text>
    </g>
    <g fill="rgb(240,240,255)" text-rendering="geometricPrecision" shape-rendering="geometricPrecision" transform="matrix(1,0,0,1,-44,-509)" stroke="rgb(240,240,255)">
      <rect x="72.64" width="141.68" height="74.616" y="530.9557" clip-path="url(#clipPath2)" stroke="none"/>
    </g>
    <g text-rendering="geometricPrecision" stroke-miterlimit="1.45" shape-rendering="geometricPrecision" transform="matrix(1,0,0,1,-44,-509)" stroke-linecap="butt">
      <rect fill="none" x="72.64" width="141.68" height="74.616" y="530.9557" clip-path="url(#clipPath2)"/>
      <text x="78.64" xml:space="preserve" y="548.0944" clip-path="url(#clipPath2)" font-family="sans-serif" stroke="none">Worker</text>
    </g>
    <g fill="rgb(240,240,255)" text-rendering="geometricPrecision" shape-rendering="geometricPrecision" transform="matrix(1,0,0,1,-44,-509)" stroke="rgb(240,240,255)">
      <rect x="89.2945" width="154.9423" height="37.7579" y="624.6428" clip-path="url(#clipPath2)" stroke="none"/>
    </g>
    <g text-rendering="geometricPrecision" stroke-miterlimit="1.45" shape-rendering="geometricPrecision" transform="matrix(1,0,0,1,-44,-509)" stroke-linecap="butt">
      <rect fill="none" x="89.2945" width="154.9423" height="37.7579" y="624.6428" clip-path="url(#clipPath2)"/>
      <text x="95.2945" xml:space="preserve" y="641.7814" clip-path="url(#clipPath2)" font-family="sans-serif" stroke="none">Master</text>
    </g>
    <g fill="rgb(204,153,255)" text-rendering="geometricPrecision" shape-rendering="geometricPrecision" transform="matrix(1,0,0,1,-44,-509)" stroke="rgb(204,153,255)">
      <rect x="146.6689" width="83.4048" height="16.8609" y="635.0913" clip-path="url(#clipPath2)" stroke="none"/>
    </g>
    <g text-rendering="geometricPrecision" stroke-miterlimit="1.45" shape-rendering="geometricPrecision" transform="matrix(1,0,0,1,-44,-509)" stroke-linecap="butt">
      <rect fill="none" x="146.6689" width="83.4048" height="16.8609" y="635.0913" clip-path="url(#clipPath2)"/>
      <text x="149.6029" xml:space="preserve" y="648.7332" clip-path="url(#clipPath2)" font-family="sans-serif" stroke="none">Docker API</text>
    </g>
    <g fill="rgb(240,240,255)" text-rendering="geometricPrecision" shape-rendering="geometricPrecision" transform="matrix(1,0,0,1,-44,-509)" stroke="rgb(240,240,255)">
      <rect x="85.52" width="141.68" height="74.616" y="539.0113" clip-path="url(#clipPath2)" stroke="none"/>
    </g>
    <g text-rendering="geometricPrecision" stroke-miterlimit="1.45" shape-rendering="geometricPrecision" transform="matrix(1,0,0,1,-44,-509)" stroke-linecap="butt">
      <rect fill="none" x="85.52" width="141.68" height="74.616" y="539.0113" clip-path="url(#clipPath2)"/>
      <text x="91.52" xml:space="preserve" y="556.15" clip-path="url(#clipPath2)" font-family="sans-serif" stroke="none">Worker</text>
    </g>
    <g fill="rgb(204,153,255)" text-rendering="geometricPrecision" shape-rendering="geometricPrecision" transform="matrix(1,0,0,1,-44,-509)" stroke="rgb(204,153,255)">
      <rect x="125.0632" width="83.4048" height="16.8609" y="584.6332" clip-path="url(#clipPath2)" stroke="none"/>
    </g>
    <g text-rendering="geometricPrecision" stroke-miterlimit="1.45" shape-rendering="geometricPrecision" transform="matrix(1,0,0,1,-44,-509)" stroke-linecap="butt">
      <rect fill="none" x="125.0632" width="83.4048" height="16.8609" y="584.6332" clip-path="url(#clipPath2)"/>
      <text x="127.9973" xml:space="preserve" y="598.2751" clip-path="url(#clipPath2)" font-family="sans-serif" stroke="none">Docker API</text>
    </g>
    <g fill="rgb(153,204,255)" text-rendering="geometricPrecision" shape-rendering="geometricPrecision" transform="matrix(1,0,0,1,-44,-509)" stroke="rgb(153,204,255)">
      <rect x="125.0632" width="83.4048" height="16.8609" y="559.8332" clip-path="url(#clipPath2)" stroke="none"/>
    </g>
    <g text-rendering="geometricPrecision" stroke-miterlimit="1.45" shape-rendering="geometricPrecision" transform="matrix(1,0,0,1,-44,-509)" stroke-linecap="butt">
      <rect fill="none" x="125.0632" width="83.4048" height="16.8609" y="559.8332" clip-path="url(#clipPath2)"/>
      <text x="127.9973" xml:space="preserve" y="573.475" clip-path="url(#clipPath2)" font-family="sans-serif" stroke="none">Loadcoder</text>
    </g>
    <g fill="rgb(240,240,255)" text-rendering="geometricPrecision" shape-rendering="geometricPrecision" transform="matrix(1,0,0,1,-44,-509)" stroke="rgb(240,240,255)">
      <rect x="282.5496" width="154.9423" height="83.2708" y="579.1299" clip-path="url(#clipPath2)" stroke="none"/>
    </g>
    <g text-rendering="geometricPrecision" stroke-miterlimit="1.45" shape-rendering="geometricPrecision" transform="matrix(1,0,0,1,-44,-509)" stroke-linecap="butt">
      <rect fill="none" x="282.5496" width="154.9423" height="83.2708" y="579.1299" clip-path="url(#clipPath2)"/>
      <text x="288.5496" xml:space="preserve" y="596.2686" clip-path="url(#clipPath2)" font-family="sans-serif" stroke="none">Internet Accessor</text>
    </g>
    <g fill="rgb(0,204,255)" text-rendering="geometricPrecision" shape-rendering="geometricPrecision" transform="matrix(1,0,0,1,-44,-509)" stroke="rgb(0,204,255)">
      <rect x="296.9904" width="83.4048" height="16.8609" y="607.3105" clip-path="url(#clipPath2)" stroke="none"/>
    </g>
    <g text-rendering="geometricPrecision" stroke-miterlimit="1.45" shape-rendering="geometricPrecision" transform="matrix(1,0,0,1,-44,-509)" stroke-linecap="butt">
      <rect fill="none" x="296.9904" width="83.4048" height="16.8609" y="607.3105" clip-path="url(#clipPath2)"/>
      <text x="299.9245" xml:space="preserve" y="620.9524" clip-path="url(#clipPath2)" font-family="sans-serif" stroke="none">Artifactory</text>
    </g>
    <g fill="rgb(0,204,255)" text-rendering="geometricPrecision" shape-rendering="geometricPrecision" transform="matrix(1,0,0,1,-44,-509)" stroke="rgb(0,204,255)">
      <rect x="296.9904" width="102.3264" height="16.8609" y="635.0913" clip-path="url(#clipPath2)" stroke="none"/>
    </g>
    <g text-rendering="geometricPrecision" stroke-miterlimit="1.45" shape-rendering="geometricPrecision" transform="matrix(1,0,0,1,-44,-509)" stroke-linecap="butt">
      <rect fill="none" x="296.9904" width="102.3264" height="16.8609" y="635.0913" clip-path="url(#clipPath2)"/>
      <text x="300.1364" xml:space="preserve" y="648.7332" clip-path="url(#clipPath2)" font-family="sans-serif" stroke="none">Docker registry</text>
    </g>
    <g fill="rgb(240,240,255)" text-rendering="geometricPrecision" shape-rendering="geometricPrecision" transform="matrix(1,0,0,1,-44,-509)" stroke="rgb(240,240,255)">
      <rect x="282.5496" width="154.9423" height="46.655" y="524.0268" clip-path="url(#clipPath2)" stroke="none"/>
    </g>
    <g text-rendering="geometricPrecision" stroke-miterlimit="1.45" shape-rendering="geometricPrecision" transform="matrix(1,0,0,1,-44,-509)" stroke-linecap="butt">
      <rect fill="none" x="282.5496" width="154.9423" height="46.655" y="524.0268" clip-path="url(#clipPath2)"/>
      <text x="288.5496" xml:space="preserve" y="541.1654" clip-path="url(#clipPath2)" font-family="sans-serif" stroke="none">Workstation</text>
    </g>
    <g fill="rgb(153,204,255)" text-rendering="geometricPrecision" shape-rendering="geometricPrecision" transform="matrix(1,0,0,1,-44,-509)" stroke="rgb(153,204,255)">
      <rect x="292.9024" width="127.92" height="16.8609" y="546.5238" clip-path="url(#clipPath2)" stroke="none"/>
    </g>
    <g text-rendering="geometricPrecision" stroke-miterlimit="1.45" shape-rendering="geometricPrecision" transform="matrix(1,0,0,1,-44,-509)" stroke-linecap="butt">
      <rect fill="none" x="292.9024" width="127.92" height="16.8609" y="546.5238" clip-path="url(#clipPath2)"/>
      <text x="296.335" xml:space="preserve" y="560.1656" clip-path="url(#clipPath2)" font-family="sans-serif" stroke="none">Code to use in tests</text>
    </g>
    <g fill="rgb(240,240,255)" text-rendering="geometricPrecision" shape-rendering="geometricPrecision" transform="matrix(1,0,0,1,-44,-509)" stroke="rgb(240,240,255)">
      <rect x="467.4919" width="154.9423" height="83.2708" y="579.1299" clip-path="url(#clipPath2)" stroke="none"/>
    </g>
    <g text-rendering="geometricPrecision" stroke-miterlimit="1.45" shape-rendering="geometricPrecision" transform="matrix(1,0,0,1,-44,-509)" stroke-linecap="butt">
      <rect fill="none" x="467.4919" width="154.9423" height="83.2708" y="579.1299" clip-path="url(#clipPath2)"/>
      <text x="473.4919" xml:space="preserve" y="596.2686" clip-path="url(#clipPath2)" font-family="sans-serif" stroke="none">Internet</text>
    </g>
    <g fill="lime" text-rendering="geometricPrecision" shape-rendering="geometricPrecision" transform="matrix(1,0,0,1,-44,-509)" stroke="lime">
      <rect x="482.0846" width="96.2048" height="16.8609" y="607.3105" clip-path="url(#clipPath2)" stroke="none"/>
    </g>
    <g text-rendering="geometricPrecision" stroke-miterlimit="1.45" shape-rendering="geometricPrecision" transform="matrix(1,0,0,1,-44,-509)" stroke-linecap="butt">
      <rect fill="none" x="482.0846" width="96.2048" height="16.8609" y="607.3105" clip-path="url(#clipPath2)"/>
      <text x="485.162" xml:space="preserve" y="620.9524" clip-path="url(#clipPath2)" font-family="sans-serif" stroke="none">Maven Central</text>
    </g>
    <g fill="lime" text-rendering="geometricPrecision" shape-rendering="geometricPrecision" transform="matrix(1,0,0,1,-44,-509)" stroke="lime">
      <rect x="482.0846" width="96.2048" height="16.8609" y="635.0913" clip-path="url(#clipPath2)" stroke="none"/>
    </g>
    <g text-rendering="geometricPrecision" stroke-miterlimit="1.45" shape-rendering="geometricPrecision" transform="matrix(1,0,0,1,-44,-509)" stroke-linecap="butt">
      <rect fill="none" x="482.0846" width="96.2048" height="16.8609" y="635.0913" clip-path="url(#clipPath2)"/>
      <text x="485.162" xml:space="preserve" y="648.7332" clip-path="url(#clipPath2)" font-family="sans-serif" stroke="none">Dockerhub</text>
      <path fill="none" d="M208.468 568.2637 L267.948 568.2637 L267.948 615.741 L288.9904 615.741" clip-path="url(#clipPath2)"/>
      <path d="M296.9904 615.741 L284.9904 610.741 L287.9904 615.741 L284.9904 620.741 Z" clip-path="url(#clipPath2)" stroke="none"/>
      <path fill="none" d="M208.468 593.0637 L253.548 593.0637 L253.548 643.5218 L288.9904 643.5218" clip-path="url(#clipPath2)"/>
      <path d="M296.9904 643.5218 L284.9904 638.5218 L287.9904 643.5218 L284.9904 648.5218 Z" clip-path="url(#clipPath2)" stroke="none"/>
      <path fill="none" d="M230.0737 643.5218 L288.9904 643.5218" clip-path="url(#clipPath2)"/>
      <path d="M296.9904 643.5218 L284.9904 638.5218 L287.9904 643.5218 L284.9904 648.5218 Z" clip-path="url(#clipPath2)" stroke="none"/>
      <path fill="none" d="M292.9024 554.9542 L267.948 554.9542 L267.948 615.741 L288.9904 615.741" clip-path="url(#clipPath2)"/>
      <path d="M296.9904 615.741 L284.9904 610.741 L287.9904 615.741 L284.9904 620.741 Z" clip-path="url(#clipPath2)" stroke="none"/>
      <path fill="none" d="M380.3952 615.741 L474.0846 615.741" clip-path="url(#clipPath2)"/>
      <path d="M482.0846 615.741 L470.0846 610.741 L473.0846 615.741 L470.0846 620.741 Z" clip-path="url(#clipPath2)" stroke="none"/>
      <path fill="none" d="M399.3168 643.5218 L474.0846 643.5218" clip-path="url(#clipPath2)"/>
      <path d="M482.0846 643.5218 L470.0846 638.5218 L473.0846 643.5218 L470.0846 648.5218 Z" clip-path="url(#clipPath2)" stroke="none"/>
    </g>
  </g>
</svg>
