<?xml version="1.0" encoding="UTF-8"?><svg xmlns="http://www.w3.org/2000/svg" xmlns:xlink="http://www.w3.org/1999/xlink" fill-opacity="1" color-rendering="auto" color-interpolation="auto" text-rendering="auto" stroke="black" stroke-linecap="square" width="510" stroke-miterlimit="10" shape-rendering="auto" stroke-opacity="1" fill="black" stroke-dasharray="none" font-weight="normal" stroke-width="1" height="128" font-family="'Dialog'" font-style="normal" stroke-linejoin="miter" font-size="12px" stroke-dashoffset="0" image-rendering="auto">
  <!--Generated by ySVG 2.5-->
  <defs id="genericDefs"/>
  <g>
    <defs id="defs1">
      <clipPath clipPathUnits="userSpaceOnUse" id="clipPath1">
        <path d="M0 0 L510 0 L510 128 L0 128 L0 0 Z"/>
      </clipPath>
      <clipPath clipPathUnits="userSpaceOnUse" id="clipPath2">
        <path d="M75 256 L585 256 L585 384 L75 384 L75 256 Z"/>
      </clipPath>
    </defs>
    <g fill="rgb(240,240,255)" text-rendering="geometricPrecision" shape-rendering="geometricPrecision" transform="matrix(1,0,0,1,-75,-256)" stroke="rgb(240,240,255)">
      <rect x="90.8483" width="118.1191" height="51.0708" y="317.4948" clip-path="url(#clipPath2)" stroke="none"/>
    </g>
    <g text-rendering="geometricPrecision" stroke-miterlimit="1.45" shape-rendering="geometricPrecision" transform="matrix(1,0,0,1,-75,-256)" stroke-linecap="butt">
      <rect fill="none" x="90.8483" width="118.1191" height="51.0708" y="317.4948" clip-path="url(#clipPath2)"/>
      <text x="96.8483" xml:space="preserve" y="334.6335" clip-path="url(#clipPath2)" font-family="sans-serif" stroke="none">Browser</text>
    </g>
    <g fill="rgb(153,204,255)" text-rendering="geometricPrecision" shape-rendering="geometricPrecision" transform="matrix(1,0,0,1,-75,-256)" stroke="rgb(153,204,255)">
      <rect x="117.554" width="83.4048" height="16.8609" y="341.6398" clip-path="url(#clipPath2)" stroke="none"/>
    </g>
    <g text-rendering="geometricPrecision" stroke-miterlimit="1.45" shape-rendering="geometricPrecision" transform="matrix(1,0,0,1,-75,-256)" stroke-linecap="butt">
      <rect fill="none" x="117.554" width="83.4048" height="16.8609" y="341.6398" clip-path="url(#clipPath2)"/>
      <text x="120.4881" xml:space="preserve" y="355.2816" clip-path="url(#clipPath2)" font-family="sans-serif" stroke="none">Network log</text>
    </g>
    <g fill="rgb(240,240,255)" text-rendering="geometricPrecision" shape-rendering="geometricPrecision" transform="matrix(1,0,0,1,-75,-256)" stroke="rgb(240,240,255)">
      <rect x="238.9674" width="118.1191" height="33.1508" y="272.264" clip-path="url(#clipPath2)" stroke="none"/>
    </g>
    <g text-rendering="geometricPrecision" stroke-miterlimit="1.45" shape-rendering="geometricPrecision" transform="matrix(1,0,0,1,-75,-256)" stroke-linecap="butt">
      <rect fill="none" x="238.9674" width="118.1191" height="33.1508" y="272.264" clip-path="url(#clipPath2)"/>
      <text x="244.9674" xml:space="preserve" y="289.4026" clip-path="url(#clipPath2)" font-family="sans-serif" stroke="none">Website</text>
    </g>
    <g fill="rgb(240,240,255)" text-rendering="geometricPrecision" shape-rendering="geometricPrecision" transform="matrix(1,0,0,1,-75,-256)" stroke="rgb(240,240,255)">
      <rect x="311.8598" width="91.2391" height="33.1508" y="335.4148" clip-path="url(#clipPath2)" stroke="none"/>
    </g>
    <g text-rendering="geometricPrecision" stroke-miterlimit="1.45" shape-rendering="geometricPrecision" transform="matrix(1,0,0,1,-75,-256)" stroke-linecap="butt">
      <rect fill="none" x="311.8598" width="91.2391" height="33.1508" y="335.4148" clip-path="url(#clipPath2)"/>
      <text x="317.8598" xml:space="preserve" y="352.5535" clip-path="url(#clipPath2)" font-family="sans-serif" stroke="none">recording.har</text>
    </g>
    <g fill="rgb(240,240,255)" text-rendering="geometricPrecision" shape-rendering="geometricPrecision" transform="matrix(1,0,0,1,-75,-256)" stroke="rgb(240,240,255)">
      <rect x="475.1833" width="91.2391" height="33.1508" y="335.4148" clip-path="url(#clipPath2)" stroke="none"/>
    </g>
    <g text-rendering="geometricPrecision" stroke-miterlimit="1.45" shape-rendering="geometricPrecision" transform="matrix(1,0,0,1,-75,-256)" stroke-linecap="butt">
      <rect fill="none" x="475.1833" width="91.2391" height="33.1508" y="335.4148" clip-path="url(#clipPath2)"/>
      <text x="481.1833" xml:space="preserve" y="352.5535" clip-path="url(#clipPath2)" font-family="sans-serif" stroke="none">Loadcoder</text>
    </g>
    <g fill="rgb(240,240,255)" text-rendering="geometricPrecision" shape-rendering="geometricPrecision" transform="matrix(1,0,0,1,-75,-256)" stroke="rgb(240,240,255)">
      <rect x="475.1833" width="91.2391" height="33.1508" y="272.264" clip-path="url(#clipPath2)" stroke="none"/>
    </g>
    <g text-rendering="geometricPrecision" stroke-miterlimit="1.45" shape-rendering="geometricPrecision" transform="matrix(1,0,0,1,-75,-256)" stroke-linecap="butt">
      <rect fill="none" x="475.1833" width="91.2391" height="33.1508" y="272.264" clip-path="url(#clipPath2)"/>
      <text x="481.1833" xml:space="preserve" y="289.4026" clip-path="url(#clipPath2)" font-family="sans-serif" stroke="none">Load test</text>
      <path fill="none" d="M149.9079 317.4948 L149.9079 288.8394 L230.9674 288.8394" clip-path="url(#clipPath2)"/>
      <path d="M238.9674 288.8394 L226.9674 283.8394 L229.9674 288.8394 L226.9674 293.8394 Z" clip-path="url(#clipPath2)" stroke="none"/>
      <text x="152.7211" xml:space="preserve" y="302.6695" clip-path="url(#clipPath2)" font-family="sans-serif" stroke="none">1. Browsing</text>
      <path fill="none" d="M200.9588 350.4742 L303.8602 351.4709" clip-path="url(#clipPath2)"/>
      <path d="M311.8599 351.5484 L299.9088 346.4324 L302.8603 351.4612 L299.812 356.4319 Z" clip-path="url(#clipPath2)" stroke="none"/>
      <text x="211.2657" xml:space="preserve" y="346.1252" clip-path="url(#clipPath2)" font-family="sans-serif" stroke="none">2. Saved to file</text>
      <path fill="none" d="M403.0989 351.9902 L467.1833 351.9902" clip-path="url(#clipPath2)"/>
      <path d="M475.1833 351.9902 L463.1833 346.9902 L466.1833 351.9902 L463.1833 356.9902 Z" clip-path="url(#clipPath2)" stroke="none"/>
      <text x="407.8343" xml:space="preserve" y="344.2695" clip-path="url(#clipPath2)" font-family="sans-serif" stroke="none">3. Read by</text>
      <path fill="none" d="M485.6541 335.4159 L485.6541 313.4482" clip-path="url(#clipPath2)"/>
      <path d="M485.6541 305.4482 L480.6541 317.4482 L485.6541 314.4482 L490.6541 317.4482 Z" clip-path="url(#clipPath2)" stroke="none"/>
      <text x="489.6181" xml:space="preserve" y="329.5495" clip-path="url(#clipPath2)" font-family="sans-serif" stroke="none">4. Generates</text>
      <path fill="none" d="M475.1833 288.8394 L365.0865 288.8394" clip-path="url(#clipPath2)"/>
      <path d="M357.0865 288.8394 L369.0865 293.8394 L366.0865 288.8394 L369.0865 283.8394 Z" clip-path="url(#clipPath2)" stroke="none"/>
      <text x="400.1016" xml:space="preserve" y="284.7495" clip-path="url(#clipPath2)" font-family="sans-serif" stroke="none">5. Loads</text>
    </g>
  </g>
</svg>
